# AST/ASF file generated using VICON BodyLanguage
# -----------------------------------------------
:version 1.10
:name VICON
:units
  mass 1.0
  length 0.45
  angle deg
:documentation
   .ast/.asf automatically generated from VICON data using
   VICON BodyBuilder and BodyLanguage model FoxedUp or BRILLIANT.MOD
:root
   order TX TY TZ RX RY RZ
   axis XYZ
   position 0 0 0  
   orientation 0 0 0 
:bonedata
  begin
     id 1 
     name lhipjoint
     direction 0.567149 -0.783011 0.255413 
     length 2.28399 
     axis 0 0 0  XYZ
  end
  begin
     id 2 
     name lfemur
     direction 0.34202 -0.939693 0  
     length 7.34031  
     axis 0 0 20  XYZ
    dof rx ry rz
    limits (-160.0 20.0)
           (-70.0 70.0)
           (-60.0 70.0)
  end
  begin
     id 3 
     name ltibia
     direction 0.34202 -0.939693 0   
     length 6.9833   
     axis 0 0 20   XYZ
    dof rx
    limits (-10.0 170.0)
  end
  begin
     id 4 
     name lfoot
     direction 0.136498 -0.375025 0.91691   
     length 2.33665   
     axis -90 7.62852e-016 20   XYZ
    dof rx rz
    limits (-45.0 90.0)
           (-70.0 20.0)
  end
  begin
     id 5 
     name ltoes
     direction 1.5367e-011 -4.21617e-011 1   
     length 1.15039   
     axis -90 7.62852e-016 20   XYZ
    dof rx
    limits (-90.0 20.0)
  end
  begin
     id 6 
     name rhipjoint
     direction -0.602854 -0.758518 0.247423   
     length 2.35775  
     axis 0 0 0  XYZ 
  end
  begin
     id 7 
     name rfemur
     direction -0.34202 -0.939693 0   
     length 7.43932   
     axis 0 0 -20   XYZ
    dof rx ry rz
    limits (-160.0 20.0)
           (-70.0 70.0)
           (-70.0 60.0)
  end
  begin
     id 8 
     name rtibia
     direction -0.34202 -0.939693 0   
     length 7.11893   
     axis 0 0 -20   XYZ
    dof rx
    limits (-10.0 170.0)
 end
 begin
     id 9 
     name rfoot
     direction -0.131771 -0.362037 0.922803   
     length 2.53019  
     axis -90 -7.62852e-016 -20   XYZ
    dof rx rz
    limits (-45.0 90.0)
           (-20.0 70.0)
  end
  begin
     id 10 
     name rtoes
     direction -1.53733e-011 -4.21932e-011 1   
     length 1.24596   
     axis -90 -7.62852e-016 -20   XYZ
    dof rx
    limits (-90.0 20.0)
  end
  begin
     id 11 
     name lowerback
     direction 0.0235427 0.999023 -0.0374125   
     length 2.21768   
     axis 0 0 0   XYZ
    dof rx ry rz
    limits (-20.0 45.0)
           (-30.0 30.0)
           (-30.0 30.0)
  end
  begin
     id 12 
     name upperback
     direction 0.0302156 0.996818 -0.073759   
     length 2.20352   
     axis 0 0 0   XYZ
    dof rx ry rz
    limits (-20.0 45.0)
           (-30.0 30.0)
           (-30.0 30.0)
  end
  begin
     id 13 
     name thorax
     direction 0.0187169 0.998235 -0.0563532   
     length 2.22103   
     axis 0 0 0   XYZ
    dof rx ry rz
    limits (-20.0 45.0)
           (-30.0 30.0)
           (-30.0 30.0)
  end
  begin
     id 14 
     name lowerneck
     direction -0.119528 0.987423 0.103481   
     length 1.72948   
     axis 0 0 0   XYZ
    dof rx ry rz
    limits (-20.0 45.0)
           (-30.0 30.0)
           (-30.0 30.0)
  end
  begin
     id 15 
     name upperneck
     direction 0.248049 0.963095 -0.104496   
     length 1.74979   
     axis 0 0 0   XYZ
    dof rx ry rz
    limits (-20.0 45.0)
           (-30.0 30.0)
           (-30.0 30.0)
  end
  begin
     id 16
     name head
     direction 0.0903589 0.994284 -0.056876  
     length 1.78268  
     axis 0 0 0   XYZ
    dof rx ry rz
    limits (-20.0 45.0)
           (-30.0 30.0)
           (-30.0 30.0)
  end
  begin
     id 17 
     name lclavicle
     direction 0.946008 0.242039 -0.215608  
     length 3.80783  
     axis 0 0 0   XYZ
    dof ry rz
    limits (-20.0 10.0)
           (0.0 20.0)
  end
  begin
     id 18 
     name lhumerus
     direction 1 -4.48991e-011 -2.25695e-027   
     length 4.83125   
     axis 180 -30 -90   XYZ
    dof rx ry rz
    limits (-60.0 90.0)
           (-90.0 90.0)
           (-90.0 90.0)
  end
  begin
     id 19
     name lradius
     direction 0.999991 0.00366712 -0.00211721   
     length 3.00391   
     axis 180 -30 -90   XYZ
    dof rx
    limits (-10.0 170.0)
  end
  begin
     id 20
     name lwrist
     direction 0.999991 0.00393016 -0.00141978   
     length 1.50195   
     axis -1.00488e-014 90 90   XYZ
    dof ry
    limits (-180.0 0.0)
 end
  begin
     id 21 
     name lhand
     direction 1 -4.49123e-011 2.72098e-026   
     length 1.2717   
     axis -1.73687e-014 90 90   XYZ
    dof rx rz
    limits (-90.0 90.0)
           (-45.0 45.0)
  end
  begin
     id 22 
     name lfingers
     direction 1 -4.48678e-011 5.4479e-026   
     length 1.02528   
     axis -3.47372e-014 90 90   XYZ
    dof rx
    limits (0.0 90.0)
  end
  begin
     id 23
     name lthumb
     direction 0.707107 -6.34851e-011 0.707107   
     length 1.4721   
     axis -90 45 -1.62303e-014   XYZ
    dof rx rz
    limits (-45.0 45.0)
           (-45.0 45.0)
  end
  begin
     id 24 
     name rclavicle
     direction -0.981723 0.189447 -0.0181673   
     length 3.74989  
     axis 0 0 0   XYZ 
    dof ry rz
    limits (-10.0 20.0)
           (-20.0 0.0)
  end
  begin
     id 25 
     name rhumerus
     direction -1 -4.48985e-011 2.38206e-027  
     length 4.61118   
     axis 180 30 90   XYZ
    dof rx ry rz
    limits (-90.0 60.0)
           (-90.0 90.0)
           (-90.0 90.0)
  end
  begin
     id 26 
     name rradius
     direction -1 -4.48977e-011 7.41019e-027   
     length 2.91491   
     axis 180 30 90   XYZ
    dof rx
    limits (-10.0 170.0)
  end
  begin
     id 27 
     name rwrist
     direction -1 -4.48549e-011 1.3624e-026   
     length 1.45745   
     axis -1.00488e-014 -90 -90   XYZ
    dof ry
    limits (-180.0 0.0)
  end
  begin
     id 28
     name rhand
     direction -1 -4.49107e-011 2.72109e-026   
     length 1.30769   
     axis -1.73687e-014 -90 -90   XYZ
    dof rx rz
    limits (-90.0 90.0)
           (-45.0 45.0)
  end
  begin
     id 29
     name rfingers
     direction -1 -4.48919e-011 5.44468e-026   
     length 1.05429   
     axis -3.47372e-014 -90 -90   XYZ
    dof rx
    limits (0.0 90.0)
  end
  begin
     id 30
     name rthumb
     direction -0.707107 -6.35315e-011 0.707107   
     length 1.51376   
     axis -90 -45 1.62303e-014   XYZ
    dof rx rz
    limits (-45.0 45.0)
           (-45.0 45.0)
  end
:hierarchy
  begin
    root lhipjoint rhipjoint lowerback
    lhipjoint lfemur
    lfemur ltibia
    ltibia lfoot
    lfoot ltoes
    rhipjoint rfemur
    rfemur rtibia
    rtibia rfoot
    rfoot rtoes
    lowerback upperback
    upperback thorax
    thorax lowerneck lclavicle rclavicle
    lowerneck upperneck
    upperneck head
    lclavicle lhumerus
    lhumerus lradius
    lradius lwrist
    lwrist lhand lthumb
    lhand lfingers
    rclavicle rhumerus
    rhumerus rradius
    rradius rwrist
    rwrist rhand rthumb
    rhand rfingers
  end

#!OML:ASF X:\für Bonn\!DataBase\2005_08_11_Bastian_Final\c3d\Bastian.ASF
:FULLY-SPECIFIED
:DEGREES
1
root 2.98596 16.8434 -1.24935 171.606 3.35767 -179.864
lowerback 14.4036 -6.02481 -1.30219
upperback 7.75052 -7.02563 1.0489
thorax 0.46216 -3.11428 2.76101
lowerneck -12.5918 -1.709 1.71264
upperneck -6.43065 -1.52302 7.03424
head 0.128358 -0.348123 1.86912
rclavicle 1.23246e-013 -3.69739e-014
rhumerus -33.3617 36.3303 -103.149
rradius 107.223
rwrist 7.04435
rhand -20.3204 11.101
rfingers 7.12502
rthumb 6.03048 -18.7932
lclavicle 1.23246e-013 -3.69739e-014
lhumerus -32.2868 -34.892 108.098
lradius 106.15
lwrist 39.3162
lhand -7.53835 -28.8868
lfingers 7.12502
lthumb 18.353 0.267417
rfemur -22.8413 2.9267 22.2399
rtibia 56.139
rfoot -25.0396 -8.31447
rtoes -7.7204
lfemur 4.26464 3.10139 -16.3906
ltibia 34.6454
lfoot -26.3853 -5.57265
ltoes -10.0814
2
root 2.99708 16.8412 -1.28124 171.731 3.3024 -179.932
lowerback 14.2513 -6.08748 -1.28542
upperback 7.6406 -7.13246 1.06856
thorax 0.432298 -3.17766 2.77653
lowerneck -12.6118 -1.61683 1.84736
upperneck -6.37052 -1.43346 6.8406
head 0.14368 -0.310384 1.78609
rclavicle 4.88513e-014 -2.127e-014
rhumerus -32.3483 36.9007 -102.756
rradius 107.783
rwrist 6.99154
rhand -20.6389 11.1702
rfingers 7.12502
rthumb 5.72298 -18.7325
lclavicle 4.88513e-014 -2.127e-014
lhumerus -32.197 -34.7517 108.204
lradius 106.859
lwrist 39.3019
lhand -7.77506 -28.9537
lfingers 7.12502
lthumb 18.1253 0.221823
rfemur -22.971 3.1215 22.1515
rtibia 55.8736
rfoot -25.2709 -8.4124
rtoes -7.8269
lfemur 4.30415 3.26379 -16.3581
ltibia 34.5285
lfoot -26.4321 -5.77531
ltoes -10.1753
3
root 3.00935 16.8407 -1.31488 171.854 3.25241 -180.021
lowerback 14.0951 -6.15361 -1.31292
upperback 7.53351 -7.24758 1.11268
thorax 0.417511 -3.24684 2.84147
lowerneck -12.6489 -1.51259 1.96066
upperneck -6.31792 -1.32646 6.60989
head 0.159115 -0.264208 1.69581
rclavicle 6.02318e-014 -5.96354e-015
rhumerus -31.2382 37.5079 -102.261
rradius 108.35
rwrist 6.91067
rhand -20.9008 11.2436
rfingers 7.12502
rthumb 5.47013 -18.6658
lclavicle 6.02318e-014 -5.96354e-015
lhumerus -32.1191 -34.5053 108.326
lradius 107.608
lwrist 39.2965
lhand -7.87801 -28.9632
lfingers 7.12502
lthumb 18.0262 0.221456
rfemur -23.1184 3.22776 22.0259
rtibia 55.5861
rfoot -25.3114 -8.49071
rtoes -7.85208
lfemur 4.35582 3.38372 -16.3682
ltibia 34.4184
lfoot -26.4716 -5.91398
ltoes -10.1803
4
root 3.02264 16.8384 -1.34984 171.99 3.21261 -180.091
lowerback 13.9299 -6.22661 -1.31544
upperback 7.41143 -7.37161 1.15512
thorax 0.388921 -3.32051 2.89175
lowerneck -12.6267 -1.3961 2.09039
upperneck -6.28848 -1.20142 6.38522
head 0.157261 -0.211251 1.60564
rclavicle -7.56376e-014 1.63003e-014
rhumerus -30.0974 38.0743 -101.785
rradius 108.885
rwrist 6.82966
rhand -21.1609 11.3373
rfingers 7.12502
rthumb 5.21904 -18.5784
lclavicle -7.56376e-014 1.63003e-014
lhumerus -32.0428 -34.2802 108.441
lradius 108.353
lwrist 39.369
lhand -7.99952 -29.0066
lfingers 7.12502
lthumb 17.9093 0.18878
rfemur -23.2884 3.29268 21.924
rtibia 55.2758
rfoot -25.2144 -8.67261
rtoes -8.06554
lfemur 4.40186 3.3908 -16.3962
ltibia 34.3229
lfoot -26.5596 -5.91926
ltoes -10.2245
5
root 3.03674 16.8357 -1.38703 172.117 3.14878 -180.157
lowerback 13.7475 -6.31919 -1.31372
upperback 7.31146 -7.51776 1.18785
thorax 0.392696 -3.40401 2.92874
lowerneck -12.6424 -1.26317 2.23986
upperneck -6.23426 -1.05777 6.18422
head 0.169642 -0.14685 1.5209
rclavicle 3.60794e-014 -2.18663e-014
rhumerus -28.809 38.6514 -101.247
rradius 109.423
rwrist 6.67517
rhand -21.3938 11.386
rfingers 7.12502
rthumb 4.99411 -18.5351
lclavicle 3.60794e-014 -2.18663e-014
lhumerus -31.9163 -34.1091 108.457
lradius 109.092
lwrist 39.5304
lhand -8.1664 -29.0995
lfingers 7.12502
lthumb 17.7487 0.110497
rfemur -23.4359 3.36278 21.801
rtibia 54.9504
rfoot -25.0748 -8.8617
rtoes -7.70173
lfemur 4.44892 3.38168 -16.4225
ltibia 34.2441
lfoot -26.6572 -5.87976
ltoes -10.6033
6
root 3.05189 16.8329 -1.42596 172.251 3.10883 -180.225
lowerback 13.5593 -6.40266 -1.31089
upperback 7.19266 -7.65402 1.24013
thorax 0.381971 -3.48369 2.98405
lowerneck -12.6058 -1.13808 2.32097
upperneck -6.20868 -0.913321 5.99847
head 0.165868 -0.0829695 1.45294
rclavicle 5.83433e-014 -2.5842e-014
rhumerus -27.5175 39.1879 -100.676
rradius 109.939
rwrist 6.51328
rhand -21.6379 11.4619
rfingers 7.12502
rthumb 4.75838 -18.4646
lclavicle 5.83433e-014 -2.5842e-014
lhumerus -31.813 -33.9356 108.499
lradius 109.804
lwrist 39.7508
lhand -8.33352 -29.2155
lfingers 7.12502
lthumb 17.5879 0.00894207
rfemur -23.5861 3.41686 21.6823
rtibia 54.6221
rfoot -24.8832 -9.037
rtoes -7.11259
lfemur 4.49729 3.30661 -16.4803
ltibia 34.1848
lfoot -26.7794 -5.71894
ltoes -11.0977
7
root 3.06829 16.8307 -1.46603 172.386 3.05918 -180.297
lowerback 13.3639 -6.48047 -1.29896
upperback 7.08151 -7.7804 1.28594
thorax 0.380743 -3.55755 3.0248
lowerneck -12.5932 -1.01751 2.44335
upperneck -6.18451 -0.78079 5.77183
head 0.165365 -0.0255276 1.36464
rclavicle -2.55438e-014 1.31198e-014
rhumerus -26.0631 39.6328 -100.045
rradius 110.418
rwrist 6.26507
rhand -21.7759 11.5417
rfingers 7.12502
rthumb 4.62513 -18.3878
lclavicle -2.55438e-014 1.31198e-014
lhumerus -31.6951 -33.7768 108.498
lradius 110.498
lwrist 40.0186
lhand -8.52219 -29.3552
lfingers 7.12502
lthumb 17.4063 -0.114571
rfemur -23.7396 3.32121 21.5896
rtibia 54.3166
rfoot -24.6146 -9.29165
rtoes -7.02511
lfemur 4.53582 3.19923 -16.5483
ltibia 34.1464
lfoot -26.8952 -5.51268
ltoes -11.6182
8
root 3.08529 16.8295 -1.50724 172.532 3.00508 -180.347
lowerback 13.1685 -6.56853 -1.26633
upperback 6.96 -7.91889 1.33897
thorax 0.36784 -3.63715 3.06329
lowerneck -12.5986 -0.888284 2.55918
upperneck -6.11468 -0.640741 5.57253
head 0.183088 0.0369572 1.28698
rclavicle 2.16675e-014 -6.75868e-015
rhumerus -24.5669 40.0897 -99.4262
rradius 110.869
rwrist 5.9772
rhand -21.9489 11.5561
rfingers 7.12502
rthumb 4.45808 -18.377
lclavicle 2.16675e-014 -6.75868e-015
lhumerus -31.551 -33.5913 108.472
lradius 111.137
lwrist 40.3021
lhand -8.70216 -29.5451
lfingers 7.12502
lthumb 17.2331 -0.289243
rfemur -23.9002 3.17356 21.5323
rtibia 54.0399
rfoot -24.3225 -9.4891
rtoes -7.19532
lfemur 4.55577 3.11734 -16.5769
ltibia 34.12
lfoot -27.0234 -5.3261
ltoes -12.4081
9
root 3.10338 16.8264 -1.54991 172.651 2.94406 -180.392
lowerback 13.0071 -6.65653 -1.24236
upperback 6.84057 -8.05597 1.3919
thorax 0.340573 -3.7151 3.1094
lowerneck -12.5778 -0.761939 2.72135
upperneck -6.07556 -0.507173 5.33563
head 0.1866 0.0939077 1.1894
rclavicle -5.92378e-014 3.1408e-014
rhumerus -23.0284 40.4978 -98.8316
rradius 111.29
rwrist 5.61443
rhand -22.0944 11.5515
rfingers 7.12502
rthumb 4.31758 -18.3845
lclavicle -5.92378e-014 3.1408e-014
lhumerus -31.4196 -33.3942 108.431
lradius 111.699
lwrist 40.5659
lhand -8.924 -29.7847
lfingers 7.12502
lthumb 17.0196 -0.510316
rfemur -24.0066 2.95983 21.4936
rtibia 53.8034
rfoot -24.0511 -9.57033
rtoes -7.34018
lfemur 4.60647 2.98124 -16.6178
ltibia 34.1089
lfoot -27.1866 -5.04084
ltoes -13.2531
10
root 3.12288 16.8224 -1.59253 172.77 2.88958 -180.439
lowerback 12.8542 -6.74364 -1.2428
upperback 6.72258 -8.19316 1.45749
thorax 0.31625 -3.79356 3.18208
lowerneck -12.6074 -0.623798 2.85985
upperneck -5.99535 -0.359408 5.11837
head 0.212232 0.160455 1.10332
rclavicle -2.0276e-014 2.82274e-014
rhumerus -21.4178 40.8722 -98.2282
rradius 111.674
rwrist 5.19254
rhand -22.1777 11.5737
rfingers 7.12502
rthumb 4.23721 -18.3639
lclavicle -2.0276e-014 2.82274e-014
lhumerus -31.2183 -33.1555 108.362
lradius 112.142
lwrist 40.8215
lhand -9.14969 -30.1203
lfingers 7.12502
lthumb 16.8023 -0.827289
rfemur -24.1055 2.73726 21.4619
rtibia 53.6091
rfoot -23.8041 -9.52171
rtoes -7.42092
lfemur 4.64217 2.83297 -16.66
ltibia 34.1063
lfoot -27.3404 -4.76631
ltoes -14.1005
11
root 3.14274 16.8169 -1.63665 172.872 2.82828 -180.465
lowerback 12.7251 -6.83399 -1.22182
upperback 6.60719 -8.33008 1.52386
thorax 0.2794 -3.87019 3.24627
lowerneck -12.6396 -0.482832 3.07552
upperneck -5.91374 -0.219584 4.8349
head 0.238499 0.220452 0.983534
rclavicle 1.03368e-013 -4.01545e-014
rhumerus -19.8298 41.2148 -97.6835
rradius 112.075
rwrist 4.72847
rhand -22.2481 11.5339
rfingers 7.12502
rthumb 4.16916 -18.4051
lclavicle 1.03368e-013 -4.01545e-014
lhumerus -31.032 -32.9013 108.281
lradius 112.525
lwrist 40.9712
lhand -9.3845 -30.4586
lfingers 7.12502
lthumb 16.5763 -1.14658
rfemur -24.1696 2.45795 21.4643
rtibia 53.4587
rfoot -23.566 -9.44537
rtoes -7.5568
lfemur 4.7014 2.68338 -16.6783
ltibia 34.109
lfoot -27.4629 -4.47665
ltoes -15.0589
12
root 3.16369 16.8098 -1.68187 172.962 2.74853 -180.511
lowerback 12.6182 -6.93317 -1.2263
upperback 6.47663 -8.48127 1.60911
thorax 0.222964 -3.95466 3.3484
lowerneck -12.6728 -0.352493 3.13152
upperneck -5.81772 -0.0737166 4.6537
head 0.271973 0.287698 0.923368
rclavicle 7.65321e-014 -2.42517e-014
rhumerus -18.2506 41.5697 -97.0829
rradius 112.464
rwrist 4.18379
rhand -22.3251 11.5315
rfingers 7.12502
rthumb 4.09488 -18.4089
lclavicle 7.65321e-014 -2.42517e-014
lhumerus -30.8702 -32.6125 108.262
lradius 112.811
lwrist 41.0235
lhand -9.65235 -30.83
lfingers 7.12502
lthumb 16.3184 -1.49655
rfemur -24.2122 2.13792 21.4522
rtibia 53.3661
rfoot -23.3511 -9.29887
rtoes -7.62678
lfemur 4.76974 2.53425 -16.715
ltibia 34.1039
lfoot -27.5212 -4.17003
ltoes -16.1348
13
root 3.18559 16.7993 -1.72888 173.048 2.66834 -180.513
lowerback 12.4906 -7.0395 -1.1766
upperback 6.37066 -8.63232 1.69348
thorax 0.19555 -4.03653 3.41598
lowerneck -12.76 -0.211943 3.275
upperneck -5.70647 0.0713894 4.4016
head 0.318868 0.353531 0.826929
rclavicle -1.33186e-014 -3.18055e-015
rhumerus -16.6236 41.9421 -96.4477
rradius 112.865
rwrist 3.60659
rhand -22.4166 11.4795
rfingers 7.12502
rthumb 4.00646 -18.4626
lclavicle -1.33186e-014 -3.18055e-015
lhumerus -30.709 -32.3068 108.216
lradius 113.028
lwrist 40.9599
lhand -9.86964 -31.2131
lfingers 7.12502
lthumb 16.1092 -1.86267
rfemur -24.2289 1.82639 21.4945
rtibia 53.3166
rfoot -23.1733 -9.14686
rtoes -7.69065
lfemur 4.83319 2.41483 -16.6841
ltibia 34.1185
lfoot -27.4791 -3.93067
ltoes -17.2666
